<svg xmlns="http://www.w3.org/2000/svg" width="32px" height="32px"  viewBox="0 0 24 24"><g>
                <g>
                    <path d="M11.435,20.936h-5.87c-1.379,0-2.5-1.122-2.5-2.5v-2.933c0-1.378,1.121-2.5,2.5-2.5h5.87
                        c1.379,0,2.5,1.122,2.5,2.5v2.933C13.935,19.814,12.813,20.936,11.435,20.936z M5.564,14.003c-0.827,0-1.5,0.673-1.5,1.5v2.933
                        c0,0.827,0.673,1.5,1.5,1.5h5.87c0.827,0,1.5-0.673,1.5-1.5v-2.933c0-0.827-0.673-1.5-1.5-1.5H5.564z"/>
                    <path d="M18.436,20.935c-1.379,0-2.5-1.122-2.5-2.5v-2.933c0-1.378,1.121-2.5,2.5-2.5s2.5,1.122,2.5,2.5
                        v2.933C20.936,19.814,19.814,20.935,18.436,20.935z M18.436,14.002c-0.827,0-1.5,0.673-1.5,1.5v2.933c0,0.827,0.673,1.5,1.5,1.5
                        s1.5-0.673,1.5-1.5v-2.933C19.936,14.675,19.263,14.002,18.436,14.002z"/>
                </g>
                <path d="M18.436,10.997H5.564c-1.379,0-2.5-1.122-2.5-2.5V5.564c0-1.378,1.121-2.5,2.5-2.5h12.871
                    c1.379,0,2.5,1.122,2.5,2.5v2.933C20.936,9.876,19.814,10.997,18.436,10.997z M5.564,4.064c-0.827,0-1.5,0.673-1.5,1.5v2.933
                    c0,0.827,0.673,1.5,1.5,1.5h12.871c0.827,0,1.5-0.673,1.5-1.5V5.564c0-0.827-0.673-1.5-1.5-1.5H5.564z"/>
            </g></svg>