<?xml version="1.0" encoding="UTF-8" standalone="no"?>
<svg
   width="32px"
   height="32px"
   viewBox="0 0 24 24"
   version="1.1"
   id="svg3"
   sodipodi:docname="logo.svg"
   inkscape:version="1.4.3 (0d15f75042, 2025-12-25)"
   xmlns:inkscape="http://www.inkscape.org/namespaces/inkscape"
   xmlns:sodipodi="http://sodipodi.sourceforge.net/DTD/sodipodi-0.dtd"
   xmlns="http://www.w3.org/2000/svg"
   xmlns:svg="http://www.w3.org/2000/svg">
  <defs
     id="defs3" />
  <sodipodi:namedview
     id="namedview3"
     pagecolor="#505050"
     bordercolor="#eeeeee"
     borderopacity="1"
     inkscape:showpageshadow="0"
     inkscape:pageopacity="0"
     inkscape:pagecheckerboard="0"
     inkscape:deskcolor="#505050"
     inkscape:zoom="26.53125"
     inkscape:cx="15.981154"
     inkscape:cy="16"
     inkscape:window-width="1920"
     inkscape:window-height="1131"
     inkscape:window-x="0"
     inkscape:window-y="0"
     inkscape:window-maximized="1"
     inkscape:current-layer="g3" />
  <g
     id="g3">
    <g
       id="g2">
      <path
         d="M11.435,20.936h-5.87c-1.379,0-2.5-1.122-2.5-2.5v-2.933c0-1.378,1.121-2.5,2.5-2.5h5.87                         c1.379,0,2.5,1.122,2.5,2.5v2.933C13.935,19.814,12.813,20.936,11.435,20.936z M5.564,14.003c-0.827,0-1.5,0.673-1.5,1.5v2.933                         c0,0.827,0.673,1.5,1.5,1.5h5.87c0.827,0,1.5-0.673,1.5-1.5v-2.933c0-0.827-0.673-1.5-1.5-1.5H5.564z"
         id="path1"
         style="fill:#ffffff" />
      <path
         d="M18.436,20.935c-1.379,0-2.5-1.122-2.5-2.5v-2.933c0-1.378,1.121-2.5,2.5-2.5s2.5,1.122,2.5,2.5                         v2.933C20.936,19.814,19.814,20.935,18.436,20.935z M18.436,14.002c-0.827,0-1.5,0.673-1.5,1.5v2.933c0,0.827,0.673,1.5,1.5,1.5                         s1.5-0.673,1.5-1.5v-2.933C19.936,14.675,19.263,14.002,18.436,14.002z"
         id="path2"
         style="fill:#ffffff" />
    </g>
    <path
       d="M18.436,10.997H5.564c-1.379,0-2.5-1.122-2.5-2.5V5.564c0-1.378,1.121-2.5,2.5-2.5h12.871                     c1.379,0,2.5,1.122,2.5,2.5v2.933C20.936,9.876,19.814,10.997,18.436,10.997z M5.564,4.064c-0.827,0-1.5,0.673-1.5,1.5v2.933                     c0,0.827,0.673,1.5,1.5,1.5h12.871c0.827,0,1.5-0.673,1.5-1.5V5.564c0-0.827-0.673-1.5-1.5-1.5H5.564z"
       id="path3"
       style="fill:#ffffff" />
  </g>
</svg>
